# xmcd
#
# Track frame offsets:
# 150
# 13780
# 24517
# 34887
# 45280
# 58262
# 69932
# 80000
# 92652
# 107287
# 120622
# 131142
#
# Disc length: 1938 seconds
#
#
# Revision: 3
# Processed by: cddbd v1.5.1PL2 Copyright (c) Steve Scherf et al.
# Submitted via: FreeRIP 2.944 
#
DISCID=9607900c
DTITLE=Louvin Brothers - Satan Is Real
DYEAR=1900
DGENRE=Country
TTITLE0=Satan Is Real
TTITLE1=There's A Higher Power
TTITLE2=The Christian Life
TTITLE3=The River of Jordan
TTITLE4=The Kneeling Drunkard's Plea
TTITLE5=Are You Afraid to Die
TTITLE6=He Can Be Found
TTITLE7=Dying From Home, And Lost
TTITLE8=The Drunkard's Doom
TTITLE9=Satan's Jeweled Crown
TTITLE10=The Angels Rejoiced Last Night
TTITLE11=I'm Ready to Go Home
EXTD=
EXTT0=
EXTT1=
EXTT2=
EXTT3=
EXTT4=
EXTT5=
EXTT6=
EXTT7=
EXTT8=
EXTT9=
EXTT10=
EXTT11=
PLAYORDER=
